The.Runaways.Screener.H264.FEEL-FREE

screens 
http://img19.imageshack.us/slideshow/webplayer.php?id=run1c.png

Genre:Drama | Music
Language:English
IMDb:http://www.imdb.com/title/tt1017451/
Source:SCR-NoGRP.Thanks
Encoder: Tony2 
http://www.imdb.com/title/tt1017451/


General
Complete name : The.Runaways.Screener.H264.FEEL-FREE
Format : MPEG-4
Format profile : Base Media
Codec ID : isom
File size : 700 MiB
Duration : 1h 46mn
Overall bit rate : 918 Kbps

Video
ID : 1
Format : AVC
Format/Info : Advanced Video Codec
Format profile : Main@L1.3
Format settings, CABAC : Yes
Format settings, ReFrames : 1 frame
Codec ID : avc1
Codec ID/Info : Advanced Video Coding
Duration : 1h 46mn
Bit rate mode : Variable
Bit rate : 762 Kbps
Width : 704 pixels
Height : 304 pixels
Display aspect ratio : 2.35:1
Frame rate mode : Constant
Frame rate : 29.970 fps
Resolution : 24 bits
Colorimetry : 4:2:0
Scan type : Progressive
Bits/(Pixel*Frame) : 0.119
Stream size : 581 MiB (83%)

Audio
ID : 2
Format : AAC
Format/Info : Advanced Audio Codec
Format version : Version 4
Format profile : LC
Format settings, SBR : No
Codec ID : 40
Duration : 1h 46mn
Bit rate mode : Variable
Bit rate : 152 Kbps
Channel(s) : 2 channels
Channel positions : L R
Sampling rate : 44.1 KHz
Resolution : 16 bits
Stream size : 116 MiB (17%)

Plot:
A coming-of-age biopic about '70s teenage band The Runaways